<?xml version="1.0" encoding="UTF-8"?>
<svg xmlns="http://www.w3.org/2000/svg" xmlns:xlink="http://www.w3.org/1999/xlink" width="754pt" height="206.5pt" viewBox="0 0 754 206.5" version="1.1">
<g id="surface1">
<path style=" stroke:none;fill-rule:evenodd;fill:rgb(85.546875%,14.501953%,11.376953%);fill-opacity:1;" d="M 86.96875 79.507813 C 86.96875 96.460938 90.253906 109.34375 97.558594 119.167969 C 118.574219 147.441406 160.472656 135.726563 183.90625 116.4375 L 225.804688 77.328125 C 240.132813 64.019531 260.992188 60.921875 260.992188 87.761719 C 260.992188 113.246094 241.148438 153.296875 273.9375 119.460938 L 298.480469 93.746094 C 306.289063 87.71875 317.753906 81.535156 328.03125 87.480469 C 337.65625 93.050781 335.21875 108.058594 335.226563 118.539063 C 335.234375 125.820313 336.742188 135.09375 343.113281 136.039063 C 349.820313 137.039063 361.828125 115.230469 365.496094 108.996094 L 386.144531 78.644531 C 396.535156 65.746094 412.535156 65.316406 417.128906 80.144531 C 421.65625 94.757813 415.019531 117.140625 433.738281 127.289063 C 457.597656 140.226563 494.710938 111.761719 526.527344 111.761719 C 555.074219 111.761719 568.925781 116.714844 595.539063 123.757813 C 604.859375 126.226563 614.066406 128.707031 624.140625 130.414063 C 641.816406 133.417969 663.816406 134.894531 681.746094 131.210938 C 685.34375 130.472656 689.21875 129.855469 692.914063 128.878906 C 697.070313 127.78125 700.433594 127.570313 700.554688 122.265625 C 696.007813 121.058594 693.617188 122.457031 688.871094 123.335938 C 677.996094 125.347656 666.90625 126.703125 656.300781 126.820313 L 634.609375 125.199219 C 584.710938 120.566406 554.371094 92.464844 492.671875 113.164063 C 479.011719 117.746094 447.945313 130.390625 435.621094 114.90625 C 426.953125 104.003906 431.664063 82.039063 425.546875 69.476563 C 421.21875 60.585938 414.269531 58.507813 404.261719 58.507813 C 394.214844 58.507813 384.609375 70.589844 378.992188 77.492188 C 369.96875 88.578125 362.601563 100.714844 355.273438 113.03125 C 353.371094 116.21875 351.5625 119.636719 348.753906 121.515625 C 347.609375 116.601563 347.71875 111.679688 346.851563 106.164063 C 346.097656 101.386719 344.835938 95.53125 343.414063 91.597656 C 334.46875 66.835938 308.351563 75.304688 293.464844 87.980469 C 287.621094 92.953125 278.871094 103.078125 273.742188 106.511719 C 273.742188 93.433594 278.539063 79.777344 269.371094 68.121094 C 256.878906 52.246094 233.765625 62.496094 222.648438 74.171875 C 212.003906 85.351563 199.402344 96.785156 187.058594 106.089844 C 172.648438 116.957031 158.40625 125.265625 137.976563 125.265625 C 122.574219 125.265625 112.027344 118.972656 105.742188 107.992188 C 94.308594 88.023438 99.003906 67.621094 110.96875 49.496094 C 113.210938 46.105469 120.421875 39.089844 121.507813 36.761719 C 125.320313 28.589844 116.316406 32.285156 110.867188 39.652344 L 67.8125 94.859375 L 49.621094 114.183594 C 45.691406 118.03125 46.121094 122.554688 50.632813 119.820313 C 55.328125 116.976563 61.867188 108.511719 65.785156 104.078125 C 67.097656 102.59375 68.195313 101.839844 69.496094 100.289063 C 70.921875 98.585938 71.328125 97.878906 72.878906 96.175781 C 77.054688 91.589844 82.679688 82.378906 86.96875 79.507813 Z M 0.078125 159.949219 C 0.683594 159.96875 1.539063 160.003906 2.636719 160.0625 C 5.390625 160.207031 7.234375 160.28125 8.144531 160.28125 C 9.351563 160.28125 11.5625 160.199219 14.765625 160.03125 C 15.578125 159.996094 16.183594 159.96875 16.601563 159.949219 L 16.628906 162.160156 C 14.535156 162.160156 13.21875 162.414063 12.664063 162.945313 C 12.121094 163.46875 11.847656 164.746094 11.847656 166.804688 L 11.847656 192.832031 C 11.847656 194.957031 12.121094 196.257813 12.664063 196.746094 C 13.21875 197.234375 14.535156 197.472656 16.628906 197.472656 L 16.628906 199.625 C 14.304688 199.519531 12.558594 199.453125 11.378906 199.417969 C 10.199219 199.375 9.257813 199.363281 8.550781 199.363281 C 7.757813 199.363281 6.746094 199.375 5.5 199.417969 C 4.257813 199.453125 2.453125 199.519531 0.078125 199.625 L 0.078125 197.472656 C 2.1875 197.472656 3.5 197.210938 4.035156 196.691406 C 4.5625 196.164063 4.828125 194.886719 4.828125 192.832031 L 4.828125 166.804688 C 4.828125 164.710938 4.5625 163.417969 4.019531 162.914063 C 3.476563 162.410156 2.167969 162.160156 0.078125 162.160156 Z M 52.585938 162.824219 L 53.203125 160.234375 L 54.90625 160.234375 C 54.851563 161.523438 54.804688 162.664063 54.777344 163.660156 C 54.746094 164.648438 54.738281 165.53125 54.738281 166.304688 C 54.738281 167.648438 54.777344 169.714844 54.851563 172.484375 L 54.851563 172.945313 L 53.015625 172.945313 C 52.722656 169.328125 51.609375 166.542969 49.664063 164.59375 C 47.722656 162.640625 45.121094 161.664063 41.863281 161.664063 C 37.65625 161.664063 34.496094 163.210938 32.378906 166.316406 C 30.269531 169.414063 29.207031 174.078125 29.207031 180.285156 C 29.207031 186.078125 30.222656 190.445313 32.257813 193.394531 C 34.289063 196.332031 37.304688 197.804688 41.296875 197.804688 C 43.769531 197.804688 45.6875 197.417969 47.046875 196.652344 C 48.417969 195.890625 49.101563 194.796875 49.101563 193.402344 L 49.101563 188.804688 C 49.101563 186.9375 47.324219 185.917969 43.78125 185.785156 C 42.949219 185.746094 42.316406 185.722656 41.863281 185.703125 L 41.863281 183.601563 C 43.753906 183.695313 45.429688 183.757813 46.894531 183.804688 C 48.355469 183.851563 49.703125 183.871094 50.921875 183.871094 C 51.664063 183.871094 52.613281 183.851563 53.773438 183.8125 C 54.933594 183.777344 56.636719 183.714844 58.882813 183.601563 L 58.855469 185.703125 C 57.695313 185.789063 56.894531 186.007813 56.480469 186.335938 C 56.058594 186.664063 55.84375 187.246094 55.84375 188.078125 L 55.84375 197.695313 L 52.90625 196.101563 C 51.195313 197.492188 49.34375 198.5 47.34375 199.148438 C 45.355469 199.804688 43.023438 200.125 40.363281 200.125 C 34.457031 200.125 29.824219 198.375 26.464844 194.886719 C 23.101563 191.394531 21.414063 186.585938 21.414063 180.453125 C 21.414063 174.097656 23.203125 169.011719 26.785156 165.191406 C 30.371094 161.367188 35.113281 159.453125 41.035156 159.453125 C 43.089844 159.453125 45.046875 159.730469 46.9375 160.273438 C 48.835938 160.824219 50.714844 161.667969 52.585938 162.824219 Z M 74.691406 178.574219 C 75.121094 178.59375 75.5625 178.601563 76.015625 178.609375 C 76.46875 178.621094 77.011719 178.628906 77.664063 178.628906 C 80.945313 178.628906 83.308594 177.957031 84.765625 176.601563 C 86.230469 175.257813 86.957031 173.09375 86.957031 170.109375 C 86.957031 167.363281 86.238281 165.339844 84.8125 164.042969 C 83.371094 162.746094 81.117188 162.105469 78.039063 162.105469 C 77.40625 162.105469 76.394531 162.140625 74.984375 162.214844 C 74.847656 162.214844 74.734375 162.226563 74.660156 162.242188 Z M 63.085938 159.949219 C 64.289063 160.003906 65.496094 160.039063 66.714844 160.070313 C 67.929688 160.097656 69.152344 160.117188 70.398438 160.117188 C 71.414063 160.117188 72.910156 160.089844 74.871094 160.03125 C 76.835938 159.976563 78.28125 159.949219 79.222656 159.949219 C 84.222656 159.949219 87.960938 160.746094 90.429688 162.355469 C 92.90625 163.957031 94.140625 166.371094 94.140625 169.613281 C 94.140625 172.792969 93.164063 175.210938 91.203125 176.84375 C 89.242188 178.480469 86.191406 179.429688 82.042969 179.679688 C 85.792969 179.921875 88.46875 180.691406 90.070313 181.960938 C 91.667969 183.234375 92.660156 185.378906 93.035156 188.402344 C 93.148438 189.191406 93.238281 190.292969 93.304688 191.726563 C 93.46875 194.917969 94.289063 196.523438 95.761719 196.523438 C 96.519531 196.523438 97.121094 196.277344 97.566406 195.769531 C 98.019531 195.273438 98.351563 194.460938 98.570313 193.335938 L 100.109375 193.613281 C 99.789063 195.824219 99.046875 197.460938 97.910156 198.523438 C 96.765625 199.582031 95.15625 200.117188 93.089844 200.117188 C 90.734375 200.117188 89.03125 199.5 87.988281 198.273438 C 86.9375 197.050781 86.417969 195.039063 86.417969 192.234375 C 86.417969 191.890625 86.417969 191.394531 86.441406 190.746094 C 86.460938 190.097656 86.46875 189.597656 86.46875 189.238281 C 86.46875 185.867188 85.832031 183.640625 84.570313 182.539063 C 83.296875 181.445313 80.953125 180.894531 77.507813 180.894531 L 74.660156 180.894531 L 74.660156 192.832031 C 74.660156 194.894531 74.929688 196.191406 75.464844 196.699219 C 75.996094 197.210938 77.246094 197.472656 79.222656 197.472656 L 79.222656 199.625 C 77.011719 199.519531 75.324219 199.453125 74.167969 199.417969 C 73.023438 199.375 72.101563 199.363281 71.390625 199.363281 C 70.617188 199.363281 69.632813 199.375 68.421875 199.417969 C 67.21875 199.453125 65.441406 199.519531 63.085938 199.625 L 63.085938 197.472656 C 65.082031 197.472656 66.34375 197.207031 66.878906 196.679688 C 67.402344 196.148438 67.667969 194.867188 67.667969 192.832031 L 67.667969 166.789063 C 67.667969 164.746094 67.402344 163.46875 66.878906 162.972656 C 66.34375 162.464844 65.082031 162.199219 63.085938 162.160156 Z M 133.691406 159.785156 C 133.746094 161.082031 133.820313 162.539063 133.910156 164.160156 C 133.996094 165.78125 134.132813 167.835938 134.316406 170.339844 L 132.484375 170.339844 C 132.144531 167.105469 131.328125 164.941406 130.050781 163.828125 C 128.773438 162.714844 126.339844 162.160156 122.765625 162.160156 L 114.359375 162.160156 L 114.359375 177.523438 L 118.234375 177.523438 C 120.695313 177.523438 122.246094 177.164063 122.886719 176.445313 C 123.523438 175.726563 123.914063 174.039063 124.085938 171.390625 L 125.90625 171.414063 C 125.890625 171.953125 125.863281 172.726563 125.824219 173.738281 C 125.734375 176.308594 125.6875 178.011719 125.6875 178.859375 C 125.6875 180.277344 125.746094 182.652344 125.878906 185.980469 C 125.898438 186.484375 125.90625 186.855469 125.90625 187.082031 L 124.085938 187.082031 C 123.9375 184.027344 123.511719 182.035156 122.804688 181.144531 C 122.09375 180.242188 120.574219 179.789063 118.234375 179.789063 L 114.359375 179.789063 L 114.359375 197.417969 L 124.789063 197.417969 C 128.496094 197.417969 131.019531 196.78125 132.355469 195.503906 C 133.699219 194.222656 134.527344 191.753906 134.851563 188.078125 L 136.683594 188.078125 C 136.492188 190.253906 136.324219 192.292969 136.195313 194.195313 C 136.078125 196.089844 135.976563 197.898438 135.902344 199.625 L 102.753906 199.625 L 102.753906 197.472656 C 104.746094 197.472656 106.015625 197.207031 106.546875 196.667969 C 107.074219 196.148438 107.339844 194.867188 107.339844 192.832031 L 107.339844 166.785156 C 107.339844 164.738281 107.074219 163.46875 106.546875 162.972656 C 106.015625 162.464844 104.746094 162.199219 102.753906 162.160156 L 102.753906 159.949219 L 109.828125 159.949219 C 114.820313 159.949219 119.3125 159.933594 123.289063 159.894531 C 127.28125 159.859375 130.742188 159.820313 133.691406 159.785156 Z M 145.039063 159.949219 C 145.269531 159.949219 145.609375 159.960938 146.058594 159.976563 C 149.984375 160.179688 152.738281 160.28125 154.320313 160.28125 C 155.234375 160.28125 157.039063 160.207031 159.738281 160.0625 C 160.789063 160.003906 161.597656 159.96875 162.164063 159.949219 L 162.164063 162.160156 C 160.28125 162.199219 159.078125 162.472656 158.566406 162.980469 C 158.0625 163.496094 157.804688 164.765625 157.804688 166.804688 L 157.804688 192.671875 C 157.804688 197.292969 156.882813 200.75 155.050781 203.042969 C 153.21875 205.335938 150.453125 206.480469 146.769531 206.480469 C 144.203125 206.480469 142.128906 205.828125 140.507813 204.511719 C 138.886719 203.203125 138.074219 201.535156 138.074219 199.527344 C 138.074219 198.300781 138.386719 197.34375 139.003906 196.644531 C 139.632813 195.945313 140.480469 195.59375 141.554688 195.59375 C 142.460938 195.59375 143.195313 195.921875 143.785156 196.585938 C 144.367188 197.25 144.660156 198.109375 144.660156 199.148438 C 144.660156 199.917969 144.476563 200.632813 144.109375 201.269531 C 143.738281 201.914063 143.1875 202.472656 142.449219 202.953125 C 142.808594 203.476563 143.289063 203.882813 143.886719 204.167969 C 144.496094 204.453125 145.175781 204.601563 145.929688 204.601563 C 147.746094 204.601563 149.027344 204.03125 149.773438 202.898438 C 150.519531 201.765625 150.894531 199.648438 150.894531 196.535156 C 150.894531 196.027344 150.878906 195.179688 150.839844 193.972656 C 150.804688 192.765625 150.785156 191.816406 150.785156 191.136719 L 150.785156 166.804688 C 150.785156 164.636719 150.472656 163.332031 149.855469 162.859375 C 149.238281 162.390625 147.621094 162.160156 145.039063 162.160156 Z M 178.039063 168.351563 L 172.742188 183.105469 L 183.03125 183.105469 Z M 178.976563 159.453125 L 181.925781 159.453125 L 194.691406 194.554688 C 195.121094 195.742188 195.621094 196.523438 196.191406 196.902344 C 196.753906 197.28125 197.664063 197.472656 198.929688 197.472656 L 198.929688 199.625 C 196.621094 199.519531 194.949219 199.453125 193.890625 199.417969 C 192.839844 199.375 191.996094 199.363281 191.367188 199.363281 C 190.59375 199.363281 189.597656 199.375 188.371094 199.417969 C 187.148438 199.453125 185.40625 199.519531 183.140625 199.625 L 183.140625 197.472656 C 184.503906 197.4375 185.480469 197.25 186.070313 196.917969 C 186.648438 196.585938 186.945313 196.054688 186.945313 195.308594 C 186.945313 195.058594 186.925781 194.828125 186.898438 194.609375 C 186.871094 194.398438 186.835938 194.203125 186.78125 194.039063 L 183.839844 185.316406 L 172.078125 185.316406 L 169.804688 191.714844 C 169.769531 191.828125 169.722656 191.964844 169.664063 192.121094 C 169.121094 193.652344 168.855469 194.71875 168.855469 195.308594 C 168.855469 196.0625 169.066406 196.597656 169.492188 196.894531 C 169.914063 197.1875 170.78125 197.382813 172.078125 197.472656 L 172.078125 199.625 C 171.101563 199.554688 170.171875 199.5 169.28125 199.457031 C 168.394531 199.433594 167.574219 199.417969 166.839844 199.417969 C 166.210938 199.417969 165.464844 199.433594 164.609375 199.457031 C 163.761719 199.5 162.828125 199.554688 161.847656 199.625 L 161.847656 197.472656 C 163.070313 197.472656 163.964844 197.28125 164.519531 196.902344 C 165.078125 196.523438 165.585938 195.671875 166.054688 194.371094 Z M 248.894531 164.308594 L 249.382813 161.554688 L 251.160156 161.554688 C 251.140625 161.847656 251.121094 162.253906 251.105469 162.792969 C 251.003906 165.640625 250.949219 167.648438 250.949219 168.839844 C 250.949219 169.539063 250.964844 170.871094 251.003906 172.835938 C 251.019531 173.664063 251.039063 174.296875 251.058594 174.746094 L 249.214844 174.746094 C 248.894531 170.617188 247.6875 167.402344 245.605469 165.109375 C 243.515625 162.816406 240.761719 161.664063 237.34375 161.664063 C 233.179688 161.664063 230.050781 163.144531 227.949219 166.113281 C 225.839844 169.085938 224.789063 173.488281 224.789063 179.339844 C 224.789063 185.1875 225.921875 189.636719 228.1875 192.703125 C 230.453125 195.769531 233.742188 197.308594 238.039063 197.308594 C 241.011719 197.308594 243.503906 196.535156 245.523438 194.988281 C 247.539063 193.4375 248.894531 191.246094 249.59375 188.402344 L 251.648438 188.402344 C 251.078125 192.148438 249.445313 195.039063 246.765625 197.078125 C 244.085938 199.113281 240.59375 200.125 236.289063 200.125 C 230.464844 200.125 225.785156 198.300781 222.246094 194.644531 C 218.710938 190.996094 216.941406 186.152344 216.941406 180.128906 C 216.941406 173.988281 218.746094 169.011719 222.351563 165.191406 C 225.960938 161.367188 230.65625 159.453125 236.449219 159.453125 C 238.902344 159.453125 241.203125 159.871094 243.359375 160.722656 C 245.523438 161.5625 247.363281 162.757813 248.894531 164.308594 Z M 268.84375 178.574219 C 269.277344 178.59375 269.71875 178.601563 270.164063 178.609375 C 270.621094 178.621094 271.164063 178.628906 271.820313 178.628906 C 275.097656 178.628906 277.464844 177.957031 278.914063 176.601563 C 280.382813 175.257813 281.113281 173.09375 281.113281 170.109375 C 281.113281 167.363281 280.394531 165.339844 278.964844 164.042969 C 277.527344 162.746094 275.273438 162.105469 272.195313 162.105469 C 271.558594 162.105469 270.546875 162.140625 269.136719 162.214844 C 268.996094 162.214844 268.890625 162.226563 268.816406 162.242188 Z M 257.238281 159.949219 C 258.445313 160.003906 259.652344 160.039063 260.867188 160.070313 C 262.078125 160.097656 263.308594 160.117188 264.550781 160.117188 C 265.574219 160.117188 267.066406 160.089844 269.027344 160.03125 C 270.988281 159.976563 272.433594 159.949219 273.371094 159.949219 C 278.371094 159.949219 282.117188 160.746094 284.578125 162.355469 C 287.0625 163.957031 288.296875 166.371094 288.296875 169.613281 C 288.296875 172.792969 287.320313 175.210938 285.359375 176.84375 C 283.394531 178.480469 280.347656 179.429688 276.203125 179.679688 C 279.949219 179.921875 282.621094 180.691406 284.222656 181.960938 C 285.828125 183.234375 286.8125 185.378906 287.191406 188.402344 C 287.300781 189.191406 287.394531 190.292969 287.453125 191.726563 C 287.621094 194.917969 288.441406 196.523438 289.914063 196.523438 C 290.671875 196.523438 291.28125 196.277344 291.722656 195.769531 C 292.171875 195.273438 292.503906 194.460938 292.726563 193.335938 L 294.265625 193.613281 C 293.941406 195.824219 293.203125 197.460938 292.0625 198.523438 C 290.921875 199.582031 289.308594 200.117188 287.246094 200.117188 C 284.886719 200.117188 283.183594 199.5 282.144531 198.273438 C 281.09375 197.050781 280.578125 195.039063 280.578125 192.234375 C 280.578125 191.890625 280.578125 191.394531 280.59375 190.746094 C 280.613281 190.097656 280.621094 189.597656 280.621094 189.238281 C 280.621094 185.867188 279.988281 183.640625 278.726563 182.539063 C 277.453125 181.445313 275.105469 180.894531 271.660156 180.894531 L 268.816406 180.894531 L 268.816406 192.832031 C 268.816406 194.894531 269.078125 196.191406 269.617188 196.699219 C 270.152344 197.210938 271.402344 197.472656 273.371094 197.472656 L 273.371094 199.625 C 271.164063 199.519531 269.480469 199.453125 268.328125 199.417969 C 267.175781 199.375 266.253906 199.363281 265.546875 199.363281 C 264.773438 199.363281 263.785156 199.375 262.578125 199.417969 C 261.371094 199.453125 259.597656 199.519531 257.238281 199.625 L 257.238281 197.472656 C 259.238281 197.472656 260.496094 197.207031 261.03125 196.679688 C 261.558594 196.148438 261.824219 194.867188 261.824219 192.832031 L 261.824219 166.789063 C 261.824219 164.746094 261.558594 163.46875 261.03125 162.972656 C 260.496094 162.464844 259.238281 162.199219 257.238281 162.160156 Z M 296.742188 159.949219 C 297.347656 159.96875 298.203125 160.003906 299.300781 160.0625 C 302.054688 160.207031 303.898438 160.28125 304.808594 160.28125 C 306.015625 160.28125 308.226563 160.199219 311.433594 160.03125 C 312.242188 159.996094 312.851563 159.96875 313.265625 159.949219 L 313.289063 162.160156 C 311.203125 162.160156 309.882813 162.414063 309.328125 162.945313 C 308.789063 163.46875 308.511719 164.746094 308.511719 166.804688 L 308.511719 192.832031 C 308.511719 194.957031 308.789063 196.257813 309.328125 196.746094 C 309.882813 197.234375 311.203125 197.472656 313.289063 197.472656 L 313.289063 199.625 C 310.972656 199.519531 309.222656 199.453125 308.039063 199.417969 C 306.863281 199.375 305.925781 199.363281 305.214844 199.363281 C 304.421875 199.363281 303.410156 199.375 302.164063 199.417969 C 300.921875 199.453125 299.117188 199.519531 296.742188 199.625 L 296.742188 197.472656 C 298.851563 197.472656 300.164063 197.210938 300.703125 196.691406 C 301.226563 196.164063 301.492188 194.886719 301.492188 192.832031 L 301.492188 166.804688 C 301.492188 164.710938 301.226563 163.417969 300.683594 162.914063 C 300.140625 162.410156 298.828125 162.160156 296.742188 162.160156 Z M 343.492188 162.769531 L 343.925781 160.613281 L 345.578125 160.613281 C 345.546875 161.765625 345.511719 162.777344 345.484375 163.660156 C 345.453125 164.535156 345.445313 165.273438 345.445313 165.871094 C 345.445313 166.773438 345.453125 167.722656 345.484375 168.726563 C 345.511719 169.742188 345.546875 170.828125 345.578125 171.996094 L 343.824219 171.996094 C 343.503906 168.691406 342.480469 166.148438 340.757813 164.371094 C 339.039063 162.601563 336.761719 161.71875 333.894531 161.71875 C 331.6875 161.71875 329.890625 162.363281 328.496094 163.644531 C 327.117188 164.933594 326.425781 166.589844 326.425781 168.621094 C 326.425781 170.347656 326.921875 171.738281 327.914063 172.808594 C 328.921875 173.867188 331.121094 175.035156 334.539063 176.308594 C 339.78125 178.269531 343.199219 180.113281 344.800781 181.816406 C 346.402344 183.527344 347.203125 185.757813 347.203125 188.511719 C 347.203125 192.011719 345.941406 194.8125 343.429688 196.9375 C 340.90625 199.066406 337.5625 200.125 333.378906 200.125 C 331.261719 200.125 329.28125 199.777344 327.441406 199.082031 C 325.605469 198.386719 323.867188 197.324219 322.234375 195.914063 L 321.554688 198.679688 L 319.960938 198.679688 C 319.960938 198.054688 319.96875 197.167969 319.988281 196.035156 C 320.039063 193.890625 320.070313 192.507813 320.070313 191.871094 C 320.070313 191.339844 320.054688 190.152344 320.015625 188.316406 C 319.980469 187.203125 319.960938 186.328125 319.960938 185.691406 L 321.886719 185.691406 C 322.097656 189.523438 323.183594 192.519531 325.128906 194.683594 C 327.078125 196.832031 329.664063 197.914063 332.882813 197.914063 C 335.242188 197.914063 337.109375 197.289063 338.492188 196.027344 C 339.882813 194.765625 340.574219 193.046875 340.574219 190.878906 C 340.574219 189.164063 340.046875 187.765625 339.007813 186.664063 C 337.96875 185.574219 336.050781 184.515625 333.269531 183.484375 C 332.929688 183.363281 332.402344 183.179688 331.703125 182.949219 C 328.140625 181.6875 325.605469 180.496094 324.085938 179.382813 C 322.632813 178.324219 321.574219 177.128906 320.898438 175.78125 C 320.238281 174.449219 319.90625 172.84375 319.90625 170.992188 C 319.90625 167.476563 321.085938 164.664063 323.441406 162.585938 C 325.800781 160.492188 328.988281 159.453125 332.992188 159.453125 C 334.972656 159.453125 336.84375 159.730469 338.59375 160.273438 C 340.351563 160.824219 341.984375 161.652344 343.492188 162.769531 Z M 352.664063 159.949219 L 387.371094 159.949219 L 388.476563 170.46875 L 386.699219 170.46875 C 386.246094 167.253906 385.425781 165.0625 384.246094 163.902344 C 383.0625 162.742188 381.015625 162.160156 378.105469 162.160156 L 373.554688 162.160156 L 373.554688 192.832031 C 373.554688 194.917969 373.824219 196.210938 374.355469 196.71875 C 374.882813 197.222656 376.171875 197.472656 378.203125 197.472656 L 378.804688 197.472656 L 378.804688 199.625 C 377.183594 199.535156 375.644531 199.472656 374.191406 199.425781 C 372.734375 199.375 371.414063 199.363281 370.246094 199.363281 C 369.4375 199.363281 368.398438 199.375 367.136719 199.417969 C 365.863281 199.453125 363.914063 199.519531 361.289063 199.625 L 361.289063 197.472656 L 361.90625 197.472656 C 363.894531 197.472656 365.15625 197.222656 365.691406 196.71875 C 366.214844 196.210938 366.480469 194.917969 366.480469 192.832031 L 366.480469 162.160156 L 361.960938 162.160156 C 359.023438 162.160156 356.953125 162.742188 355.761719 163.910156 C 354.5625 165.082031 353.753906 167.273438 353.320313 170.46875 L 351.5625 170.46875 Z M 404.675781 168.351563 L 399.382813 183.105469 L 409.664063 183.105469 Z M 405.617188 159.453125 L 408.5625 159.453125 L 421.328125 194.554688 C 421.761719 195.742188 422.261719 196.523438 422.828125 196.902344 C 423.394531 197.28125 424.304688 197.472656 425.566406 197.472656 L 425.566406 199.625 C 423.265625 199.519531 421.585938 199.453125 420.527344 199.417969 C 419.476563 199.375 418.640625 199.363281 418.003906 199.363281 C 417.230469 199.363281 416.234375 199.375 415.011719 199.417969 C 413.785156 199.453125 412.046875 199.519531 409.78125 199.625 L 409.78125 197.472656 C 411.144531 197.4375 412.121094 197.25 412.703125 196.917969 C 413.289063 196.585938 413.578125 196.054688 413.578125 195.308594 C 413.578125 195.058594 413.566406 194.828125 413.539063 194.609375 C 413.511719 194.398438 413.472656 194.203125 413.414063 194.039063 L 410.480469 185.316406 L 398.71875 185.316406 L 396.445313 191.714844 C 396.40625 191.828125 396.359375 191.964844 396.304688 192.121094 C 395.761719 193.652344 395.496094 194.71875 395.496094 195.308594 C 395.496094 196.0625 395.703125 196.597656 396.128906 196.894531 C 396.554688 197.1875 397.414063 197.382813 398.71875 197.472656 L 398.71875 199.625 C 397.742188 199.554688 396.8125 199.5 395.914063 199.457031 C 395.035156 199.433594 394.214844 199.417969 393.476563 199.417969 C 392.851563 199.417969 392.105469 199.433594 391.246094 199.457031 C 390.402344 199.5 389.472656 199.554688 388.484375 199.625 L 388.484375 197.472656 C 389.710938 197.472656 390.605469 197.28125 391.15625 196.902344 C 391.71875 196.523438 392.226563 195.671875 392.695313 194.371094 Z M 413.578125 147.847656 L 415.011719 147.847656 C 414.597656 149.917969 413.941406 151.476563 413.058594 152.527344 C 412.164063 153.566406 411.050781 154.09375 409.695313 154.09375 C 409.464844 154.09375 409.226563 154.082031 408.96875 154.054688 C 408.722656 154.027344 408.472656 153.980469 408.214844 153.921875 L 405.222656 153.144531 C 404.914063 153.0625 404.621094 152.988281 404.347656 152.941406 C 404.070313 152.894531 403.847656 152.871094 403.683594 152.871094 C 402.945313 152.871094 402.367188 153.078125 401.921875 153.476563 C 401.480469 153.871094 401.121094 154.496094 400.855469 155.363281 L 399.425781 155.363281 C 399.824219 153.289063 400.46875 151.726563 401.351563 150.65625 C 402.246094 149.597656 403.351563 149.0625 404.6875 149.0625 C 405.007813 149.0625 405.328125 149.082031 405.652344 149.117188 C 405.976563 149.15625 406.296875 149.210938 406.601563 149.277344 L 409.664063 150.058594 C 409.835938 150.09375 410.019531 150.132813 410.242188 150.164063 C 410.453125 150.207031 410.664063 150.222656 410.859375 150.222656 C 411.59375 150.222656 412.164063 150.039063 412.570313 149.679688 C 412.976563 149.320313 413.316406 148.714844 413.578125 147.847656 Z M 443.757813 159.949219 C 445.195313 160.039063 446.390625 160.105469 447.367188 160.152344 C 448.335938 160.199219 449.171875 160.226563 449.871094 160.226563 C 450.515625 160.226563 451.347656 160.199219 452.351563 160.152344 C 453.355469 160.105469 454.746094 160.039063 456.503906 159.949219 L 467.242188 190.292969 L 478.011719 159.949219 C 479.660156 160.039063 480.9375 160.105469 481.824219 160.152344 C 482.714844 160.199219 483.433594 160.226563 483.96875 160.226563 C 484.722656 160.226563 485.617188 160.199219 486.640625 160.152344 C 487.664063 160.105469 488.953125 160.039063 490.496094 159.949219 L 490.496094 162.160156 C 488.554688 162.199219 487.3125 162.445313 486.777344 162.914063 C 486.234375 163.386719 485.96875 164.609375 485.96875 166.582031 L 485.96875 192.832031 C 485.96875 194.941406 486.234375 196.238281 486.757813 196.726563 C 487.289063 197.222656 488.539063 197.472656 490.496094 197.472656 L 490.496094 199.625 C 488.34375 199.519531 486.6875 199.453125 485.535156 199.417969 C 484.382813 199.375 483.425781 199.363281 482.652344 199.363281 C 481.878906 199.363281 480.894531 199.375 479.695313 199.417969 C 478.496094 199.453125 476.777344 199.519531 474.527344 199.625 L 474.527344 197.472656 C 476.492188 197.472656 477.734375 197.207031 478.269531 196.679688 C 478.789063 196.148438 479.058594 194.867188 479.058594 192.832031 L 479.117188 163.726563 L 478.847656 163.726563 L 466.136719 199.363281 L 463.523438 199.082031 L 451.023438 163.726563 L 450.644531 163.726563 L 450.378906 191.570313 L 450.378906 192.242188 C 450.378906 194.453125 450.675781 195.878906 451.253906 196.515625 C 451.84375 197.152344 453.058594 197.472656 454.910156 197.472656 L 454.910156 199.625 C 453.816406 199.554688 452.78125 199.5 451.816406 199.457031 C 450.839844 199.433594 449.964844 199.417969 449.171875 199.417969 C 448.289063 199.417969 447.320313 199.433594 446.269531 199.457031 C 445.222656 199.5 444.121094 199.554688 442.972656 199.625 L 442.996094 197.472656 C 445.136719 197.417969 446.492188 197.132813 447.074219 196.609375 C 447.660156 196.089844 447.964844 194.480469 448.003906 191.78125 L 448.324219 165.265625 L 448.324219 164.988281 C 448.324219 163.828125 448.066406 163.074219 447.5625 162.722656 C 447.039063 162.382813 445.78125 162.199219 443.757813 162.160156 Z M 508.570313 168.351563 L 503.273438 183.105469 L 513.5625 183.105469 Z M 509.507813 159.453125 L 512.453125 159.453125 L 525.222656 194.554688 C 525.65625 195.742188 526.152344 196.523438 526.722656 196.902344 C 527.285156 197.28125 528.195313 197.472656 529.460938 197.472656 L 529.460938 199.625 C 527.15625 199.519531 525.480469 199.453125 524.421875 199.417969 C 523.371094 199.375 522.53125 199.363281 521.898438 199.363281 C 521.121094 199.363281 520.128906 199.375 518.902344 199.417969 C 517.679688 199.453125 515.9375 199.519531 513.671875 199.625 L 513.671875 197.472656 C 515.035156 197.4375 516.011719 197.25 516.601563 196.917969 C 517.183594 196.585938 517.476563 196.054688 517.476563 195.308594 C 517.476563 195.058594 517.453125 194.828125 517.429688 194.609375 C 517.402344 194.398438 517.367188 194.203125 517.3125 194.039063 L 514.371094 185.316406 L 502.609375 185.316406 L 500.335938 191.714844 C 500.300781 191.828125 500.253906 191.964844 500.199219 192.121094 C 499.652344 193.652344 499.386719 194.71875 499.386719 195.308594 C 499.386719 196.0625 499.597656 196.597656 500.023438 196.894531 C 500.445313 197.1875 501.3125 197.382813 502.609375 197.472656 L 502.609375 199.625 C 501.632813 199.554688 500.703125 199.5 499.8125 199.457031 C 498.925781 199.433594 498.105469 199.417969 497.371094 199.417969 C 496.742188 199.417969 495.996094 199.433594 495.140625 199.457031 C 494.289063 199.5 493.363281 199.554688 492.378906 199.625 L 492.378906 197.472656 C 493.601563 197.472656 494.496094 197.28125 495.050781 196.902344 C 495.609375 196.523438 496.117188 195.671875 496.585938 194.371094 Z M 543.21875 178.574219 C 543.652344 178.59375 544.09375 178.601563 544.546875 178.609375 C 544.996094 178.621094 545.539063 178.628906 546.195313 178.628906 C 549.472656 178.628906 551.839844 177.957031 553.296875 176.601563 C 554.757813 175.257813 555.488281 173.09375 555.488281 170.109375 C 555.488281 167.363281 554.769531 165.339844 553.339844 164.042969 C 551.90625 162.746094 549.648438 162.105469 546.570313 162.105469 C 545.9375 162.105469 544.921875 162.140625 543.515625 162.214844 C 543.371094 162.214844 543.265625 162.226563 543.191406 162.242188 Z M 531.613281 159.949219 C 532.820313 160.003906 534.027344 160.039063 535.242188 160.070313 C 536.453125 160.097656 537.683594 160.117188 538.925781 160.117188 C 539.949219 160.117188 541.441406 160.089844 543.402344 160.03125 C 545.363281 159.976563 546.8125 159.949219 547.746094 159.949219 C 552.753906 159.949219 556.492188 160.746094 558.960938 162.355469 C 561.4375 163.957031 562.671875 166.371094 562.671875 169.613281 C 562.671875 172.792969 561.695313 175.210938 559.734375 176.84375 C 557.773438 178.480469 554.722656 179.429688 550.578125 179.679688 C 554.328125 179.921875 556.996094 180.691406 558.601563 181.960938 C 560.203125 183.234375 561.1875 185.378906 561.566406 188.402344 C 561.675781 189.191406 561.769531 190.292969 561.828125 191.726563 C 561.996094 194.917969 562.820313 196.523438 564.289063 196.523438 C 565.046875 196.523438 565.65625 196.277344 566.097656 195.769531 C 566.550781 195.273438 566.878906 194.460938 567.101563 193.335938 L 568.640625 193.613281 C 568.316406 195.824219 567.578125 197.460938 566.4375 198.523438 C 565.296875 199.582031 563.683594 200.117188 561.621094 200.117188 C 559.261719 200.117188 557.558594 199.5 556.519531 198.273438 C 555.46875 197.050781 554.953125 195.039063 554.953125 192.234375 C 554.953125 191.890625 554.953125 191.394531 554.972656 190.746094 C 554.988281 190.097656 554.996094 189.597656 554.996094 189.238281 C 554.996094 185.867188 554.363281 183.640625 553.101563 182.539063 C 551.828125 181.445313 549.480469 180.894531 546.039063 180.894531 L 543.191406 180.894531 L 543.191406 192.832031 C 543.191406 194.894531 543.453125 196.191406 543.992188 196.699219 C 544.527344 197.210938 545.78125 197.472656 547.746094 197.472656 L 547.746094 199.625 C 545.539063 199.519531 543.855469 199.453125 542.703125 199.417969 C 541.550781 199.375 540.632813 199.363281 539.921875 199.363281 C 539.148438 199.363281 538.164063 199.375 536.953125 199.417969 C 535.746094 199.453125 533.972656 199.519531 531.613281 199.625 L 531.613281 197.472656 C 533.613281 197.472656 534.871094 197.207031 535.410156 196.679688 C 535.933594 196.148438 536.199219 194.867188 536.199219 192.832031 L 536.199219 166.789063 C 536.199219 164.746094 535.933594 163.46875 535.410156 162.972656 C 534.871094 162.464844 533.613281 162.199219 531.613281 162.160156 Z M 585.265625 168.351563 L 579.96875 183.105469 L 590.257813 183.105469 Z M 586.203125 159.453125 L 589.152344 159.453125 L 601.914063 194.554688 C 602.347656 195.742188 602.847656 196.523438 603.414063 196.902344 C 603.980469 197.28125 604.890625 197.472656 606.152344 197.472656 L 606.152344 199.625 C 603.851563 199.519531 602.175781 199.453125 601.117188 199.417969 C 600.066406 199.375 599.226563 199.363281 598.59375 199.363281 C 597.816406 199.363281 596.824219 199.375 595.597656 199.417969 C 594.371094 199.453125 592.632813 199.519531 590.367188 199.625 L 590.367188 197.472656 C 591.730469 197.4375 592.703125 197.25 593.296875 196.917969 C 593.871094 196.585938 594.171875 196.054688 594.171875 195.308594 C 594.171875 195.058594 594.152344 194.828125 594.121094 194.609375 C 594.097656 194.398438 594.058594 194.203125 594.003906 194.039063 L 591.066406 185.316406 L 579.304688 185.316406 L 577.03125 191.714844 C 576.992188 191.828125 576.949219 191.964844 576.890625 192.121094 C 576.347656 193.652344 576.078125 194.71875 576.078125 195.308594 C 576.078125 196.0625 576.289063 196.597656 576.71875 196.894531 C 577.140625 197.1875 578.007813 197.382813 579.304688 197.472656 L 579.304688 199.625 C 578.328125 199.554688 577.398438 199.5 576.503906 199.457031 C 575.621094 199.433594 574.800781 199.417969 574.066406 199.417969 C 573.4375 199.417969 572.691406 199.433594 571.835938 199.457031 C 570.988281 199.5 570.058594 199.554688 569.074219 199.625 L 569.074219 197.472656 C 570.296875 197.472656 571.191406 197.28125 571.742188 196.902344 C 572.304688 196.523438 572.8125 195.671875 573.28125 194.371094 Z M 607.371094 159.949219 C 608.796875 160.039063 610.003906 160.105469 611.007813 160.152344 C 612.003906 160.199219 612.886719 160.226563 613.660156 160.226563 C 614.285156 160.226563 615.070313 160.199219 615.988281 160.152344 C 616.921875 160.105469 618.121094 160.039063 619.617188 159.949219 L 641.132813 188.972656 L 641.132813 167.964844 C 641.132813 165.339844 640.820313 163.707031 640.195313 163.089844 C 639.558594 162.472656 638.132813 162.160156 635.882813 162.160156 L 635.882813 159.949219 C 637.339844 160.039063 638.601563 160.105469 639.660156 160.152344 C 640.71875 160.199219 641.675781 160.226563 642.515625 160.226563 C 643.039063 160.226563 643.714844 160.199219 644.539063 160.152344 C 645.371094 160.105469 646.585938 160.039063 648.203125 159.949219 L 648.203125 162.160156 C 646.226563 162.214844 644.949219 162.527344 644.371094 163.089844 C 643.796875 163.660156 643.511719 165.265625 643.511719 167.90625 L 643.511719 184.117188 C 643.511719 187.570313 643.496094 190.480469 643.472656 192.859375 C 643.445313 195.234375 643.390625 197.59375 643.316406 199.949219 L 640.460938 199.625 L 614.828125 165.152344 L 614.828125 191.667969 C 614.828125 194.40625 615.144531 196.054688 615.761719 196.625 C 616.378906 197.1875 617.8125 197.472656 620.078125 197.472656 L 620.050781 199.625 C 618.394531 199.519531 617.078125 199.453125 616.089844 199.417969 C 615.097656 199.375 614.230469 199.363281 613.496094 199.363281 C 613.0625 199.363281 612.453125 199.375 611.660156 199.417969 C 610.867188 199.453125 609.496094 199.519531 607.535156 199.625 L 607.535156 197.472656 C 609.644531 197.453125 610.996094 197.152344 611.605469 196.550781 C 612.203125 195.960938 612.507813 194.332031 612.507813 191.667969 L 612.507813 166.804688 C 612.507813 164.730469 612.230469 163.441406 611.671875 162.921875 C 611.109375 162.414063 609.835938 162.160156 607.859375 162.160156 L 607.351563 162.160156 Z M 665.273438 168.351563 L 659.980469 183.105469 L 670.265625 183.105469 Z M 666.214844 159.453125 L 669.160156 159.453125 L 681.925781 194.554688 C 682.359375 195.742188 682.855469 196.523438 683.429688 196.902344 C 683.988281 197.28125 684.902344 197.472656 686.164063 197.472656 L 686.164063 199.625 C 683.859375 199.519531 682.183594 199.453125 681.121094 199.417969 C 680.074219 199.375 679.238281 199.363281 678.601563 199.363281 C 677.828125 199.363281 676.828125 199.375 675.609375 199.417969 C 674.382813 199.453125 672.644531 199.519531 670.378906 199.625 L 670.378906 197.472656 C 671.738281 197.4375 672.714844 197.25 673.304688 196.917969 C 673.886719 196.585938 674.179688 196.054688 674.179688 195.308594 C 674.179688 195.058594 674.164063 194.828125 674.136719 194.609375 C 674.105469 194.398438 674.070313 194.203125 674.015625 194.039063 L 671.078125 185.316406 L 659.316406 185.316406 L 657.039063 191.714844 C 657.003906 191.828125 656.953125 191.964844 656.902344 192.121094 C 656.359375 193.652344 656.089844 194.71875 656.089844 195.308594 C 656.089844 196.0625 656.304688 196.597656 656.726563 196.894531 C 657.152344 197.1875 658.015625 197.382813 659.316406 197.472656 L 659.316406 199.625 C 658.339844 199.554688 657.410156 199.5 656.515625 199.457031 C 655.632813 199.433594 654.8125 199.417969 654.074219 199.417969 C 653.449219 199.417969 652.703125 199.433594 651.847656 199.457031 C 650.996094 199.5 650.066406 199.554688 649.078125 199.625 L 649.078125 197.472656 C 650.308594 197.472656 651.199219 197.28125 651.753906 196.902344 C 652.316406 196.523438 652.820313 195.671875 653.289063 194.371094 Z M 684.359375 159.949219 L 719.0625 159.949219 L 720.164063 170.46875 L 718.390625 170.46875 C 717.9375 167.253906 717.121094 165.0625 715.941406 163.902344 C 714.753906 162.742188 712.703125 162.160156 709.796875 162.160156 L 705.246094 162.160156 L 705.246094 192.832031 C 705.246094 194.917969 705.515625 196.210938 706.046875 196.71875 C 706.574219 197.222656 707.863281 197.472656 709.898438 197.472656 L 710.496094 197.472656 L 710.496094 199.625 C 708.871094 199.535156 707.339844 199.472656 705.882813 199.425781 C 704.425781 199.375 703.109375 199.363281 701.941406 199.363281 C 701.128906 199.363281 700.089844 199.375 698.828125 199.417969 C 697.558594 199.453125 695.605469 199.519531 692.980469 199.625 L 692.980469 197.472656 L 693.597656 197.472656 C 695.585938 197.472656 696.847656 197.222656 697.382813 196.71875 C 697.90625 196.210938 698.175781 194.917969 698.175781 192.832031 L 698.175781 162.160156 L 693.652344 162.160156 C 690.714844 162.160156 688.652344 162.742188 687.453125 163.910156 C 686.257813 165.082031 685.445313 167.273438 685.011719 170.46875 L 683.253906 170.46875 Z M 733.128906 168.351563 L 727.828125 183.105469 L 738.117188 183.105469 Z M 734.066406 159.453125 L 737.015625 159.453125 L 749.78125 194.554688 C 750.210938 195.742188 750.710938 196.523438 751.28125 196.902344 C 751.84375 197.28125 752.753906 197.472656 754.015625 197.472656 L 754.015625 199.625 C 751.714844 199.519531 750.039063 199.453125 748.976563 199.417969 C 747.929688 199.375 747.089844 199.363281 746.453125 199.363281 C 745.679688 199.363281 744.6875 199.375 743.460938 199.417969 C 742.234375 199.453125 740.496094 199.519531 738.230469 199.625 L 738.230469 197.472656 C 739.59375 197.4375 740.570313 197.25 741.160156 196.917969 C 741.738281 196.585938 742.035156 196.054688 742.035156 195.308594 C 742.035156 195.058594 742.015625 194.828125 741.988281 194.609375 C 741.960938 194.398438 741.921875 194.203125 741.867188 194.039063 L 738.929688 185.316406 L 727.164063 185.316406 L 724.894531 191.714844 C 724.855469 191.828125 724.808594 191.964844 724.753906 192.121094 C 724.210938 193.652344 723.945313 194.71875 723.945313 195.308594 C 723.945313 196.0625 724.15625 196.597656 724.578125 196.894531 C 725.003906 197.1875 725.871094 197.382813 727.164063 197.472656 L 727.164063 199.625 C 726.191406 199.554688 725.261719 199.5 724.367188 199.457031 C 723.484375 199.433594 722.664063 199.417969 721.925781 199.417969 C 721.300781 199.417969 720.554688 199.433594 719.699219 199.457031 C 718.851563 199.5 717.921875 199.554688 716.933594 199.625 L 716.933594 197.472656 C 718.160156 197.472656 719.054688 197.28125 719.605469 196.902344 C 720.164063 196.523438 720.675781 195.671875 721.144531 194.371094 Z M 123.722656 3.746094 C 127.273438 4.695313 122.429688 4.246094 130.386719 5.335938 C 135.578125 6.046875 134.972656 8.285156 134.972656 11.996094 C 134.972656 18.738281 128.226563 16.878906 126.722656 22.496094 C 129.664063 24.953125 146.226563 20.121094 146.226563 6.746094 C 146.226563 2.011719 142.992188 0.449219 138.851563 -0.00390625 L 128.222656 -0.00390625 C 125.15625 -0.00390625 123.972656 0.757813 123.722656 3.746094 Z M 123.722656 3.746094 "/>
</g>
</svg>
